<?xml version="1.0" encoding="utf-8"?>
<!-- Generator: Adobe Illustrator 18.0.0, SVG Export Plug-In . SVG Version: 6.00 Build 0)  -->
<!DOCTYPE svg PUBLIC "-//W3C//DTD SVG 1.1//EN" "http://www.w3.org/Graphics/SVG/1.1/DTD/svg11.dtd">
<svg version="1.1" id="Layer_1" xmlns="http://www.w3.org/2000/svg" xmlns:xlink="http://www.w3.org/1999/xlink" x="0px" y="0px"
	 viewBox="0 0 612 792" enable-background="new 0 0 612 792" xml:space="preserve">
<path fill="#FEFEFD" d="M0,410.7v-83.2c0-12.2,4.9-22,12.2-29.4c7.3-7.3,17.1-12.2,29.4-12.2h83.2c12.2,0,22,4.9,29.4,12.2
	c7.3,7.3,12.2,17.1,12.2,29.4v83.2c0,12.2-4.9,22-12.2,29.4c-7.3,7.3-17.1,12.2-29.4,12.2H41.6c-12.2,0-22-4.9-29.4-12.2
	S0,420.5,0,410.7z M222.8,410.7v-83.2c0-12.2,4.9-22,12.2-29.4c7.3-7.3,17.1-12.2,29.4-12.2h83.2c12.2,0,22,4.9,29.4,12.2
	c7.3,7.3,12.2,17.1,12.2,29.4v83.2c0,12.2-4.9,22-12.2,29.4c-7.3,7.3-17.1,12.2-29.4,12.2h-83.2c-12.2,0-22-4.9-29.4-12.2
	S222.8,420.5,222.8,410.7z M448,410.7v-83.2c0-12.2,4.9-22,12.2-29.4c7.3-7.3,17.1-12.2,29.4-12.2h83.2c12.2,0,22,4.9,29.4,12.2
	c7.3,7.3,12.2,17.1,12.2,29.4v83.2c0,12.2-4.9,22-12.2,29.4c-7.3,7.3-17.1,12.2-29.4,12.2h-83.2c-12.2,0-22-4.9-29.4-12.2
	S448,420.5,448,410.7z"/>
</svg>
