<?xml version="1.0" encoding="UTF-8" standalone="no"?>
<svg width="605px" height="605px" viewBox="0 0 605 605" version="1.1" xmlns="http://www.w3.org/2000/svg" xmlns:xlink="http://www.w3.org/1999/xlink" xmlns:sketch="http://www.bohemiancoding.com/sketch/ns">
    <!-- Generator: Sketch 3.1.1 (8761) - http://www.bohemiancoding.com/sketch -->
    <title>switch_button</title>
    <desc>Created with Sketch.</desc>
    <defs></defs>
    <g id="Web" stroke="none" stroke-width="1" fill="none" fill-rule="evenodd" sketch:type="MSPage">
        <g id="Path-+-Oval-9" sketch:type="MSLayerGroup" transform="translate(41.000000, 41.000000)">
            <circle id="Oval-85" fill="#D75909" sketch:type="MSShapeGroup" cx="261.067769" cy="261.932231" r="258.47438"></circle>
            <path d="M261.707801,5.68434189e-14 L0,261.707801 L261.707801,523.415601 L523.415601,261.707801 L261.707801,5.68434189e-14 Z M163.719545,327.045312 C198.551674,327.045312 226.788694,298.808292 226.788694,263.976163 C226.788694,229.144034 198.551674,200.907014 163.719545,200.907014 C128.887416,200.907014 100.650396,229.144034 100.650396,263.976163 C100.650396,298.808292 128.887416,327.045312 163.719545,327.045312 Z M259.531126,225.66622 C294.363255,225.66622 322.600275,197.429201 322.600275,162.597071 C322.600275,127.764942 294.363255,99.5279222 259.531126,99.5279222 C224.698996,99.5279222 196.461977,127.764942 196.461977,162.597071 C196.461977,197.429201 224.698996,225.66622 259.531126,225.66622 Z M356.81673,327.045312 C391.64886,327.045312 419.885879,298.808292 419.885879,263.976163 C419.885879,229.144034 391.64886,200.907014 356.81673,200.907014 C321.984601,200.907014 293.747581,229.144034 293.747581,263.976163 C293.747581,298.808292 321.984601,327.045312 356.81673,327.045312 Z M260.268138,429.159035 C295.100267,429.159035 323.337287,400.922015 323.337287,366.089886 C323.337287,331.257756 295.100267,303.020737 260.268138,303.020737 C225.436009,303.020737 197.198989,331.257756 197.198989,366.089886 C197.198989,400.922015 225.436009,429.159035 260.268138,429.159035 Z" id="Path" stroke="#FAEAAA" stroke-width="24" sketch:type="MSShapeGroup"></path>
            <path d="M164.0264,305.547031 C186.820672,305.547031 205.299081,287.12832 205.299081,264.407689 C205.299081,241.687058 186.820672,223.268348 164.0264,223.268348 C141.232128,223.268348 122.753719,241.687058 122.753719,264.407689 C122.753719,287.12832 141.232128,305.547031 164.0264,305.547031 Z M357.123585,305.547031 C379.917857,305.547031 398.396266,287.12832 398.396266,264.407689 C398.396266,241.687058 379.917857,223.268348 357.123585,223.268348 C334.329313,223.268348 315.850904,241.687058 315.850904,264.407689 C315.850904,287.12832 334.329313,305.547031 357.123585,305.547031 Z M259.83798,204.167939 C282.632253,204.167939 301.110661,185.749229 301.110661,163.028598 C301.110661,140.307967 282.632253,121.889256 259.83798,121.889256 C237.043708,121.889256 218.5653,140.307967 218.5653,163.028598 C218.5653,185.749229 237.043708,204.167939 259.83798,204.167939 Z M260.574993,407.660754 C283.369265,407.660754 301.847673,389.242043 301.847673,366.521412 C301.847673,343.800781 283.369265,325.382071 260.574993,325.382071 C237.78072,325.382071 219.302312,343.800781 219.302312,366.521412 C219.302312,389.242043 237.78072,407.660754 260.574993,407.660754 Z" id="Oval-8" fill="#FAEAAA" sketch:type="MSShapeGroup"></path>
        </g>
    </g>
</svg>