<svg width="605" height="605" viewBox="0 0 605 605" xmlns="http://www.w3.org/2000/svg"><title>switch_button</title><desc>Created with Sketch.</desc><g transform="translate(41 41)" fill="none"><circle fill="#D75909" cx="261.068" cy="261.932" r="258.474"/><path d="M261.708 0L0 261.708l261.708 261.708 261.708-261.708L261.708 0zM163.72 327.045c34.832 0 63.07-28.237 63.07-63.07 0-34.83-28.238-63.068-63.07-63.068-34.833 0-63.07 28.237-63.07 63.07 0 34.83 28.237 63.068 63.07 63.068zm95.81-101.38c34.833 0 63.07-28.236 63.07-63.068 0-34.832-28.237-63.07-63.07-63.07-34.83 0-63.068 28.238-63.068 63.07s28.237 63.07 63.07 63.07zm97.287 101.38c34.832 0 63.07-28.237 63.07-63.07 0-34.83-28.238-63.068-63.07-63.068s-63.07 28.237-63.07 63.07c0 34.83 28.238 63.068 63.07 63.068zm-96.55 102.114c34.833 0 63.07-28.238 63.07-63.07s-28.237-63.07-63.07-63.07c-34.83 0-63.068 28.238-63.068 63.07s28.236 63.07 63.068 63.07z" stroke="#FAEAAA" stroke-width="24"/><path d="M164.026 305.547c22.795 0 41.273-18.42 41.273-41.14s-18.48-41.14-41.274-41.14-41.272 18.42-41.272 41.14 18.478 41.14 41.272 41.14zm193.098 0c22.794 0 41.272-18.42 41.272-41.14s-18.478-41.14-41.272-41.14c-22.795 0-41.273 18.42-41.273 41.14s18.48 41.14 41.274 41.14zm-97.286-101.38c22.794 0 41.273-18.418 41.273-41.138 0-22.722-18.478-41.14-41.272-41.14-22.794 0-41.273 18.418-41.273 41.14 0 22.72 18.48 41.138 41.273 41.138zm.737 203.494c22.794 0 41.273-18.418 41.273-41.14 0-22.72-18.48-41.138-41.273-41.138-22.794 0-41.273 18.42-41.273 41.14s18.48 41.14 41.273 41.14z" fill="#FAEAAA"/></g></svg>